<svg viewBox="0 0 512 512" xmlns="http://www.w3.org/2000/svg" width="512" height="512">
  <rect width="512" height="512" rx="108" fill="#1F2937"/>
  <g transform="translate(256,258) scale(1.62)">
    <g>
      <line x1="-17" y1="-80" x2="-17" y2="-205" stroke="white" stroke-width="22" stroke-linecap="round"/>
      <line x1="17" y1="-80" x2="17" y2="-205" stroke="white" stroke-width="22" stroke-linecap="round"/>
      <line x1="-28" y1="-100" x2="28" y2="-100" stroke="white" stroke-width="16" stroke-linecap="round"/>
      <line x1="-28" y1="-130" x2="28" y2="-130" stroke="white" stroke-width="16" stroke-linecap="round"/>
      <line x1="-28" y1="-160" x2="28" y2="-160" stroke="white" stroke-width="16" stroke-linecap="round"/>
      <line x1="-28" y1="-190" x2="28" y2="-190" stroke="white" stroke-width="16" stroke-linecap="round"/>
    </g>
    <g transform="rotate(120)">
      <line x1="-17" y1="-80" x2="-17" y2="-205" stroke="white" stroke-width="22" stroke-linecap="round"/>
      <line x1="17" y1="-80" x2="17" y2="-205" stroke="white" stroke-width="22" stroke-linecap="round"/>
      <line x1="-28" y1="-100" x2="28" y2="-100" stroke="white" stroke-width="16" stroke-linecap="round"/>
      <line x1="-28" y1="-130" x2="28" y2="-130" stroke="white" stroke-width="16" stroke-linecap="round"/>
      <line x1="-28" y1="-160" x2="28" y2="-160" stroke="white" stroke-width="16" stroke-linecap="round"/>
      <line x1="-28" y1="-190" x2="28" y2="-190" stroke="white" stroke-width="16" stroke-linecap="round"/>
    </g>
    <g transform="rotate(240)">
      <line x1="-17" y1="-80" x2="-17" y2="-205" stroke="white" stroke-width="22" stroke-linecap="round"/>
      <line x1="17" y1="-80" x2="17" y2="-205" stroke="white" stroke-width="22" stroke-linecap="round"/>
      <line x1="-28" y1="-100" x2="28" y2="-100" stroke="white" stroke-width="16" stroke-linecap="round"/>
      <line x1="-28" y1="-130" x2="28" y2="-130" stroke="white" stroke-width="16" stroke-linecap="round"/>
      <line x1="-28" y1="-160" x2="28" y2="-160" stroke="white" stroke-width="16" stroke-linecap="round"/>
      <line x1="-28" y1="-190" x2="28" y2="-190" stroke="white" stroke-width="16" stroke-linecap="round"/>
    </g>
    <circle cx="0" cy="0" r="78" fill="white"/>
    <circle cx="0" cy="0" r="70" fill="#007A3D"/>
    <circle cx="0" cy="0" r="48" fill="white"/>
    <circle cx="0" cy="0" r="28" fill="#007A3D"/>
  </g>
</svg>